<?xml version="1.0" standalone="no"?><!DOCTYPE svg PUBLIC "-//W3C//DTD SVG 1.1//EN" "http://www.w3.org/Graphics/SVG/1.1/DTD/svg11.dtd"><svg t="1591362464113" class="icon" viewBox="0 0 1024 1024" version="1.1" xmlns="http://www.w3.org/2000/svg" p-id="760" xmlns:xlink="http://www.w3.org/1999/xlink" width="200" height="200"><defs><style type="text/css"></style></defs><path d="M832 234.666667h-128c-23.466667 0-42.666667 19.2-42.666667 42.666666v469.333334c0 23.466667 19.2 42.666667 42.666667 42.666666h128c23.466667 0 42.666667-19.2 42.666667-42.666666V277.333333c0-23.466667-19.2-42.666667-42.666667-42.666666z m-128 512V277.333333h128v469.333334h-128zM562.56 171.52L187.093333 245.333333C165.333333 249.6 149.333333 268.8 149.333333 290.986667v460.586666c0 22.826667 17.28 42.666667 40.106667 45.866667l375.466667 55.253333c2.133333 0.426667 4.48 0.64 6.826666 0.64 11.306667 0 22.186667-4.053333 30.72-11.52 10.24-8.746667 16-21.546667 16-34.986666V217.173333c0-13.866667-6.186667-26.88-16.853333-35.84-10.88-8.96-25.173333-12.586667-39.04-9.813333zM576 806.826667c0 1.066667-0.426667 1.92-1.28 2.773333-0.64 0.426667-1.92 1.28-3.626667 1.066667l-375.466666-55.466667c-2.133333-0.213333-3.626667-1.92-3.626667-3.626667V290.986667c0-1.706667 1.28-3.413333 3.413333-3.626667L570.88 213.333333h0.853333c1.28 0 2.346667 0.64 2.773334 1.066667 0.853333 0.853333 1.28 1.706667 1.28 2.773333v589.653334z" p-id="761"></path><path d="M512 426.666667c-11.733333 0-21.333333 9.6-21.333333 21.333333v128c0 11.733333 9.6 21.333333 21.333333 21.333333s21.333333-9.6 21.333333-21.333333v-128c0-11.733333-9.6-21.333333-21.333333-21.333333z" p-id="762"></path></svg>